<?xml version="1.0" standalone="no"?>
<!DOCTYPE svg PUBLIC "-//W3C//DTD SVG 20010904//EN"
 "http://www.w3.org/TR/2001/REC-SVG-20010904/DTD/svg10.dtd">
<svg version="1.0" xmlns="http://www.w3.org/2000/svg"
 width="512.000000pt" height="512.000000pt" viewBox="0 0 512.000000 512.000000"
 preserveAspectRatio="xMidYMid meet">
<metadata>
Created by potrace 1.14, written by Peter Selinger 2001-2017
</metadata>
<g transform="translate(0.000000,512.000000) scale(0.100000,-0.100000)"
fill="#000000" stroke="none">
<path d="M950 5094 c-59 -27 -107 -75 -131 -132 -17 -40 -66 -190 -74 -229 -2
-10 -9 -40 -15 -68 -22 -95 -31 -168 -34 -297 -4 -149 28 -359 65 -428 13 -25
49 -112 49 -120 0 -4 -26 -29 -57 -55 -183 -150 -410 -387 -453 -472 -29 -59
-34 -143 -10 -204 52 -140 259 -378 486 -560 115 -92 403 -257 551 -315 40
-16 73 -33 73 -37 0 -5 -14 -29 -31 -53 -48 -71 -125 -240 -154 -339 -37 -130
-53 -241 -53 -381 0 -330 116 -583 348 -760 l49 -37 -64 -65 c-77 -78 -106
-142 -106 -239 -1 -53 5 -77 31 -129 55 -112 146 -168 275 -168 119 -1 147 16
348 216 l170 169 91 -7 c114 -9 274 -9 392 0 l91 7 169 -169 c185 -183 225
-210 326 -219 175 -14 328 124 329 298 1 101 -30 165 -125 260 l-46 46 52 41
c29 22 66 52 81 67 15 14 38 28 50 30 12 2 49 7 82 11 33 4 62 8 65 9 3 1 25
5 49 9 69 13 205 61 283 102 263 133 471 347 603 618 73 151 106 253 131 406
9 56 10 253 1 300 -21 115 -90 250 -174 340 -55 60 -192 160 -219 160 -21 0
-17 12 16 44 74 69 217 264 247 334 29 71 24 155 -14 227 -40 74 -265 309
-424 443 l-86 72 27 57 c27 57 65 169 75 222 19 102 24 263 12 391 -17 174
-94 452 -145 520 -39 53 -47 58 -103 85 -70 32 -168 29 -226 -5 -199 -121
-464 -394 -638 -657 -26 -40 -49 -73 -51 -73 -2 0 -29 7 -61 15 -172 45 -377
69 -588 68 -148 0 -236 -7 -360 -28 -16 -3 -46 -8 -65 -11 -19 -3 -71 -14
-114 -25 -43 -11 -82 -17 -86 -12 -4 4 -31 43 -59 86 -182 273 -518 602 -665
651 -63 21 -126 18 -186 -10z"/>
</g>
</svg>
