<svg height="512" viewBox="0 0 61 47" width="512" xmlns="http://www.w3.org/2000/svg"><g id="Page-1" fill="none" fill-rule="evenodd"><g id="030---Croissant" fill-rule="nonzero"><path id="Shape" d="m58.39 24c-3.27 1.31-6.55.05-8.42-.99.0108937.0004995.0215847-.0030642.03-.01 0 0-1 0 1-5 .5840032-1.7443069 1.6995225-3.2619726 3.19-4.34 3.47 2.1 8.38 8.67 4.2 10.34z" fill="#ffeb3a"/><path id="Shape" d="m54.19 13.66c-.513474.3419024-.9757612.7550316-1.373 1.227 3.114 2.747 6.124 7.694 2.573 9.113-.484298.1921553-.9868842.3345547-1.5.425 1.5103416.2794322 3.0686789.1322559 4.5-.425 4.18-1.67-.73-8.24-4.2-10.34z" fill="#fdd834"/><path id="Shape" d="m54.22 13.64c-.01.01-.02.01-.03.02-1.4904775 1.0780274-2.6059968 2.5956931-3.19 4.34-2 5-1 5-1 5-.0084153.0069358-.0191063.0104995-.03.01h-.01c-.8675025.4108656-1.7758392.7292862-2.71.95-2.1163647.6319526-4.3900322.4756379-6.4-.44.5576279-1.7993389.9426982-3.6476765 1.15-5.52.4994356-3.8234743 2.9168421-7.1271376 6.41-8.76h.01c2.0757277.35851861 4.0623332 1.1158058 5.85 2.23.3676467.2431615.5845914.6581437.5744378 1.0988119-.0101537.4406682-.2459816.845218-.6244378 1.0711881z" fill="#ffdc00"/><path id="Shape" d="m54.27 11.47c-1.7876668-1.1141942-3.7742723-1.87148139-5.85-2.23h-.01c-.255.118-.585.289-.954.508 1.3472242.3884271 2.6316726.9683485 3.814 1.722.3676467.2431615.5845914.6581437.5744378 1.0988119-.0101537.4406682-.2459816.845218-.6244378 1.0711881-.01.01-.02.01-.03.02-1.4904775 1.0780274-2.6059968 2.5956931-3.19 4.34-2 5-1 5-1 5-.0084153.0069358-.0191063.0104995-.03.01h-.01c-.8675025.4108656-1.7758392.7292862-2.71.95-.4.1-.84.183-1.292.248 1.4329558.2027968 2.891939.118494 4.292-.248.9341608-.2207138 1.8424975-.5391344 2.71-.95h.01c.0108937.0004995.0215847-.0030642.03-.01 0 0-1 0 1-5 .5840032-1.7443069 1.6995225-3.2619726 3.19-4.34.01-.01.02-.01.03-.02.3784562-.2259701.6142841-.6305199.6244378-1.0711881.0101536-.4406682-.2067911-.8556504-.5744378-1.0988119z" fill="#fec108"/><path id="Shape" d="m48.41 9.24c-3.4931579 1.6328624-5.9105644 4.9365257-6.41 8.76-.2073018 1.8723235-.5923721 3.7206611-1.15 5.52h-.01c-.7 2-1.76 3.07-3.69 3.09-1.1046657-.0331115-2.1961709-.249385-3.23-.64 1.6-4.62-.65-13.56-4.92-19.97-.3589445-.53245194-.7531607-1.04025587-1.18-1.52 8.91-2.3 14.79-.16 18.05 1.9 1.1555116.62640919 2.0544452 1.6385942 2.54 2.86z" fill="#ff9801"/><path id="Shape" d="m45.87 6.38c-3.6570888-2.21399097-7.9226304-3.2098209-12.182-2.844 3.2516679.15771638 6.410476 1.13611434 9.182 2.844 1.1555116.62640919 2.0544452 1.6385942 2.54 2.86-3.4931579 1.6328624-5.9105644 4.9365257-6.41 8.76-.2073018 1.8723235-.5923721 3.7206611-1.15 5.52h-.01c-.2987443 1.2856793-1.1890898 2.353723-2.4 2.879.5587855.1350183 1.1311572.2058099 1.706.211 1.93-.02 2.99-1.09 3.69-3.09h.01c.5589835-1.7992055.9453937-3.6475454 1.154-5.52.4994356-3.8234743 2.9168421-7.1271376 6.41-8.76-.4855548-1.2214058-1.3844884-2.23359081-2.54-2.86z" fill="#f57c00"/><path id="Shape" d="m33.92 25.97c-.4371229 1.8025494-2.0654683 3.061194-3.92 3.03 0 0-9-21-26-13 0 0-.06-.25-.14-.57-.51-2.06.98-3.44 2.27-4.8 1.46084587-1.5495779 3.02079604-3.00263642 4.67-4.35.22-.18.44-.35.65-.52 1.7810694-1.46757472 3.764913-2.67000625 5.89-3.57 2.2013779-.93179161 4.669434-1.01726541 6.93-.24 1.3678441.54874362 2.5849146 1.41612062 3.55 2.53.4268393.47974413.8210555.98754806 1.18 1.52 4.27 6.41 6.52 15.35 4.92 19.97z" fill="#ffdc00"/><path id="Shape" d="m29 6c-2.28-3.357-5.264-5.08-9.24-4.456 2.6140756.54174528 4.8791728 2.15925699 6.24 4.456 4.27 6.41 6.52 15.35 4.92 19.97-.2541349.8149801-.7199891 1.5479241-1.35 2.124.285.569.43.906.43.906 7.143 0 4.816-14.269-1-23z" fill="#fec108"/><path id="Shape" d="m12.349 11.2c-.4179498.0002446-.7919679-.2594623-.9377666-.6511572-.1457988-.3916948-.0326216-.8327482.2837666-1.1058428.3333333-.28533333.6666667-.563 1-.833.2-.162.4-.321.6-.477 1.5508885-1.28170656 3.2744617-2.33874168 5.12-3.14 1.512546-.65740871 3.2120003-.74479704 4.784-.246.515834.1974418.7739418.77566604.5765 1.2915s-.775666.7739418-1.2915.5765c-1.112224-.31744426-2.3009746-.23028102-3.355.246-1.6602549.73387903-3.2109636 1.69398576-4.608 2.853-.193.148-.383.3-.572.452-.3173333.256-.6326667.5196667-.946.791-.1817582.1568871-.4138967.2431404-.654.243z" fill="#f5f5f5"/><path id="Shape" d="m30 29c0 1.3-1.28 2.18-2.16 2.64-.3649171-.2922106-.7491218-.5594835-1.15-.8v-.01c-.53989-.3241232-1.0974208-.6179119-1.67-.88-1.6334646-.7483089-3.3097192-1.3994436-5.02-1.95-9-3-15 4-12 11 .01.01.01.03.02.04-4.59368201-3.9902918-6.88379993-10.01593-6.1-16.05l.01-.01c.27287119-2.4305543.97367481-4.7936506 2.07-6.98 17-8 26 13 26 13z" fill="#ff9801"/><path id="Shape" d="m9.987 14.263c11.165 1.11 17.013 14.737 17.013 14.737-.0212492.6068276-.2793532 1.1811898-.719 1.6.137.077.283.155.409.231v.01c.4008782.2405165.7850829.5077894 1.15.8.88-.461 2.16-1.341 2.16-2.641 0 0-6.895-16.087-20.013-14.737z" fill="#f57c00"/><path id="Shape" d="m30 37.19c-.32-.2-.67-.41-1.03-.63-.6772532-.4214068-1.4972681-.5478408-2.27-.35-2.4333698.6932208-4.3426495 2.5836341-5.06 5.01-.4740622 1.3603211.0892465 2.8652803 1.34 3.58l-1.98.2c-.5619982.0476427-1.1263771.0610008-1.69.04-2.98-.05-9.05-.84-11.29-6-.01-.01-.01-.03-.02-.04-3-7 3-14 12-11 1.7102808.5505564 3.3865354 1.2016911 5.02 1.95.5725792.2620881 1.13011.5558768 1.67.88v.01c.4008782.2405165.7850829.5077894 1.15.8.7819378.5989781 1.3839236 1.4016258 1.74 2.32.3349781 1.0422296.4773012 2.1367619.42 3.23z" fill="#ffdc00"/><path id="Shape" d="m29.58 33.96c-.3560764-.9183742-.9580622-1.7210219-1.74-2.32-.3649171-.2922106-.7491218-.5594835-1.15-.8v-.01c-.53989-.3241232-1.0974208-.6179119-1.67-.88-1.6334646-.7483089-3.3097192-1.3994436-5.02-1.95-1.797769-.6355333-3.718909-.843363-5.611-.607.8877242.1184679 1.7620536.3217302 2.611.607 1.7102808.5505564 3.3865354 1.2016911 5.02 1.95.5725792.2620881 1.13011.5558768 1.67.88v.01c.4008782.2405165.7850829.5077894 1.15.8.7819378.5989781 1.3839236 1.4016258 1.74 2.32.2448399.7106873.3797276 1.4545933.4 2.206.6896859-.1076552 1.3952286.0318949 1.992.394.36.22.71.43 1.03.63.0566561-1.0933601-.0863451-2.1878954-.422-3.23z" fill="#fec108"/><path id="Shape" d="m29 45c-1.6553618.3106521-3.3490432.3612601-5.02.15-.3512044-.0574148-.6896462-.1758694-1-.35-1.2507535-.7147197-1.8140622-2.2196789-1.34-3.58.7173505-2.4263659 2.6266302-4.3167792 5.06-5.01.7727319-.1978408 1.5927468-.0714068 2.27.35.36.22.71.43 1.03.63 6.64 4.29 4.5 6.89-1 7.81z" fill="#ffeb3a"/><path id="Shape" d="m30 37.19c-.32-.2-.67-.41-1.03-.63-.6772532-.4214068-1.4972681-.5478408-2.27-.35-.2866376.0823761-.5678515.1825711-.842.3.037.02.076.033.112.054.36.22.71.43 1.03.63 6.64 4.29 4.5 6.89-1 7.81-.542.09-1.051.156-1.529.2 1.5119289.1378489 3.0355868.0692187 4.529-.204 5.5-.92 7.64-3.52 1-7.81z" fill="#fdd834"/><circle id="Oval" cx="52.5" cy="30.5" fill="#ffdc00" r="2.5"/><g fill="#000"><path id="Shape" d="m52.5 27c-1.9329966 0-3.5 1.5670034-3.5 3.5s1.5670034 3.5 3.5 3.5 3.5-1.5670034 3.5-3.5-1.5670034-3.5-3.5-3.5zm0 5c-.8284271 0-1.5-.6715729-1.5-1.5s.6715729-1.5 1.5-1.5 1.5.6715729 1.5 1.5-.6715729 1.5-1.5 1.5z"/><circle id="Oval" cx="46" cy="29" r="1"/><circle id="Oval" cx="42" cy="30" r="1"/><path id="Shape" d="m55.635 13.445c.4673369-1.0070791.1219124-2.2045506-.81-2.808-1.7455193-1.08751569-3.6731362-1.85077066-5.69-2.253-.6283026-1.18602254-1.5756092-2.1728147-2.735-2.849-3.451-2.181-9.4-4.285-18.247-2.16-3.142-3.18-7.114-3.669-11.171-2.12-4.028 1.545-8.611 5.556-11.582 8.688-1.895 1.986-3.1 3.336-2.463 5.932-1.04177621 2.210386-1.72144703 4.5738712-2.013 7-.80091502 6.2807961 1.54718983 12.5525108 6.276 16.763 2.168 4.69 7.432 6.409 12.612 6.409 1.0056099-.0153291 2.0094025-.0907972 3.006-.226.3219725.1509591.6631649.2569508 1.014.315 3.4.513 10.6-.324 11.249-3.775.329-1.759-1.016-3.634-4.09-5.708.1142498-1.754911-.4458982-3.4872206-1.566-4.843.6502787-.4696585 1.1443298-1.12398 1.418-1.878 1.6041169-.2263908 2.9793114-1.2612803 3.641-2.74 3.068.862 5.506.516 6.886-2.357 2.682.953 5.94.409 8.562-.713 2.6834247 1.5435956 5.9071363 1.8383537 8.826.807 4.782-1.91.997-8.349-3.123-11.484zm-52.735 9.78c.26086894-2.2327646.87768159-4.4093334 1.827-6.447 3.64243682-1.8276025 7.8761071-2.0771098 11.708-.69 7.492 2.84 11.83 11.551 12.541 13.074-.1785534.5476036-.5604874 1.0057811-1.067 1.28-2.3724506-1.455646-4.9246492-2.5955966-7.592-3.391-8.2-2.732-14.24 2.228-14.07 8.55-2.72175998-3.5137615-3.92674708-7.9693697-3.347-12.376zm16.426 20.815c-2.44-.04-8.326-.651-10.393-5.405-2.733-6.294 2.642-12.391 10.751-9.686 2.2482254.6926743 4.4203533 1.6117159 6.483 2.743 1.985 1.219 2.539 2.272 2.741 3.735-.7818656-.328153-1.6494928-.3920576-2.471-.182-2.7469866.783102-4.9093488 2.9059294-5.743 5.638-.3563628 1.027284-.2731504 2.1560776.23 3.12-.5315555.0422093-1.0650606.054562-1.598.037zm13.792-2.047c-.122.652-1.311 1.526-4.282 2.021-1.549643.292-3.1353042.3409194-4.7.145-.577677-.0943686-1.0842027-.4390101-1.3840492-.941711s-.36241-1.1121529-.1709508-1.665289c.6106157-2.1159306 2.2662349-3.7692834 4.383-4.377.5120803-.1242492 1.0526126-.0374037 1.5.241 4.601 2.73 4.725 4.194 4.654 4.577zm-2.5-14.043c-3.682-7.639-10.518-14.768-19.075-14.768-2.33088336.0238539-4.63504515.4992889-6.785 1.4.017-1 .742-1.842 1.845-3 7.119-7.464 15.863-13.576 21.565-5.028 5.232 7.846 7.472 20.53 2.449 21.396zm4.519-2.645c1.294-5.949-1.865-14.99-5.553-20.209 7.639-1.6 12.752.233 15.756 2.131.6773767.40658751 1.2660512.94527065 1.731 1.584-3.3326733 1.893314-5.5782374 5.2464674-6.06 9.049-.2010017 1.8074664-.5730012 3.5917914-1.111 5.329-.748 2.123-1.819 2.942-4.764 2.116zm6.926-2.344c.4132951-1.5845579.7232803-3.1942765.928-4.819.4250287-3.3781901 2.5055951-6.3224091 5.548-7.851 1.8375573.3481325 3.5954468 1.0311536 5.186 2.015.165.109.184.349-.077.514-1.6541094 1.2008057-2.901813 2.8783669-3.576 4.808-.7273871 1.5134098-1.1762198 3.1454673-1.325 4.818-2.1062686.9215358-4.4624357 1.1030505-6.685.515zm15.956.111c-2.794 1.119-5.647.069-7.265-.776.1958937-1.3589363.5922032-2.681316 1.176-3.924.4708695-1.3321984 1.2604863-2.5289828 2.3-3.486 2.356 1.683 4.92 5.063 4.76 7-.0315261.5646771-.4245124 1.0441851-.972 1.186z"/></g></g></g></svg>