<svg id="Capa_1" enable-background="new 0 0 512 512" height="512" viewBox="0 0 512 512" width="512" xmlns="http://www.w3.org/2000/svg"><g ><path stroke="green"  d="m424.541 421.389c-3.961 3.848-4.053 10.178-.205 14.14 3.848 3.961 10.179 4.053 14.141.205 3.961-3.848 4.053-10.178.205-14.139-3.849-3.962-10.18-4.054-14.141-.206z"/><path d="m511.1 234.462c-5.754-68.133-37.697-129.948-89.946-174.057-52.247-44.107-118.545-65.228-186.677-59.477-68.135 5.753-129.951 37.692-174.063 89.935-44.113 52.245-65.239 118.54-59.486 186.675 5.754 68.133 37.697 129.948 89.946 174.057 46.612 39.35 104.403 60.407 164.709 60.406 7.29 0 14.62-.308 21.968-.928 44.897-3.79 88.051-19.347 124.795-44.988 4.543-3.17 5.657-9.425 2.489-13.97-3.167-4.546-9.418-5.661-13.96-2.491-33.854 23.624-73.624 37.958-115.011 41.452-62.792 5.3-123.904-14.166-172.059-54.819-48.153-40.651-77.592-97.618-82.893-160.407-5.303-62.789 14.167-123.884 54.821-172.033 40.656-48.15 97.63-77.587 160.43-82.889 62.801-5.304 123.905 14.167 172.059 54.819 48.153 40.651 77.592 97.617 82.893 160.407 4.525 53.58-9.553 107.558-39.641 151.991-3.107 4.588-1.909 10.827 2.676 13.936s10.819 1.91 13.926-2.678c32.653-48.224 47.933-106.8 43.024-164.941z"/><path d="m218.549 134.511-131.687 76.023c-16.297 9.409-26.026 26.261-26.026 45.08s9.73 35.67 26.026 45.079l131.687 76.024c8.147 4.703 17.084 7.055 26.02 7.055 8.945 0 17.891-2.356 26.044-7.069 16.283-9.411 26.004-26.258 26.004-45.065v-152.048c0-18.808-9.721-35.655-26.004-45.066-16.298-9.42-35.761-9.425-52.064-.013zm58.013 197.126c0 11.554-5.973 21.904-15.979 27.687-10.02 5.792-21.987 5.796-32.012.008l-131.687-76.024c-10.015-5.781-15.993-16.135-15.993-27.695 0-11.561 5.978-21.915 15.993-27.696l131.687-76.023c5.01-2.892 10.504-4.338 16-4.338 5.499 0 11 1.449 16.012 4.346 10.006 5.783 15.979 16.134 15.979 27.687z"/><path d="m370.754 127.476c-25.395 0-46.055 20.675-46.055 46.087v164.1c0 25.412 20.66 46.087 46.055 46.087s46.055-20.675 46.055-46.087v-164.1c0-25.412-20.66-46.087-46.055-46.087zm26 210.187c0 14.347-11.664 26.018-26 26.018s-26-11.671-26-26.018v-164.1c0-14.347 11.664-26.018 26-26.018s26 11.671 26 26.018z"/></g></svg>