<svg id="Capa_1" enable-background="new 0 0 497 497" height="512" viewBox="0 0 497 497" width="512" xmlns="http://www.w3.org/2000/svg"><g><path d="m487.167 157.495c0 85.869-106.855 165.56-238.667 165.56s-238.667-79.691-238.667-165.56 106.855-157.495 238.667-157.495 238.667 71.627 238.667 157.495z" fill="#fccb88"/><path d="m114.416 174.982c0-84.073 57.386-154.737 135.123-174.973-.347-.001-.691-.009-1.039-.009-131.812 0-238.667 71.626-238.667 157.496 0 70.905 72.862 137.592 172.468 158.683-41.378-33.133-67.885-84.066-67.885-141.197z" fill="#fbc072"/><path d="m146.875 401.864c0-56.126 45.499-101.625 101.625-101.625s101.625 45.499 101.625 101.625-45.499 72.598-101.625 72.598-101.625-16.472-101.625-72.598z" fill="#e3986d"/><path d="m356.083 170.221-30.807-49.547c29.003-21.422 63.005-19.93 84.357-15.827 13.115 2.52 22.813 13.639 23.74 26.966.091 1.341.181 2.732.242 4.173z" fill="#e3986d"/><path d="m396.013 234.426-39.93-64.205c12.248-21.482 35.364-35.968 61.866-35.968 5.383 0 10.625.595 15.666 1.734 1.31 27.863-2.904 72.178-37.602 98.439z" fill="#ffdde3"/><path d="m140.917 170.221 30.807-49.547c-29.003-21.422-63.005-19.93-84.357-15.827-13.115 2.52-22.813 13.639-23.74 26.966-.091 1.341-.181 2.732-.242 4.173z" fill="#e3986d"/><path d="m100.987 234.426 39.93-64.205c-12.248-21.482-35.364-35.968-61.866-35.968-5.383 0-10.625.595-15.666 1.734-1.31 27.863 2.904 72.178 37.602 98.439z" fill="#ffdde3"/><path d="m190.006 372.627c0-24.258 7.661-46.726 20.693-65.12-37.405 14.999-63.824 51.59-63.824 94.356 0 53.799 41.806 71.161 94.703 72.508-31.034-23.036-51.572-62.023-51.572-101.744z" fill="#de8957"/><path d="m289.509 349.794c-13.023 1.578-26.782 2.273-41.009 2.273-81.784 0-148.083-22.952-148.083-104.736s66.299-148.083 148.083-148.083 148.083 66.299 148.083 148.083c0 62.316-38.492 90.475-92.997 100.35v7.17h-14.086z" fill="#e8a882"/><path d="m353.432 222.48c-5.242-21.593-17.5-42.854-36.966-58.701-9.738-7.944-23.216-9.143-34.446-3.518-10.333 5.171-21.644 8.024-33.519 8.024s-23.186-2.853-33.519-8.024c-11.23-5.625-24.708-4.426-34.446 3.518-19.466 15.847-31.724 37.108-36.967 58.701-5.081 20.877 10.897 40.958 32.38 40.958 11.802 0 22.755-6.242 28.73-16.512 4.567-7.863 11.049-16.986 19.295-23.67 6.946-5.645 15.141-9.567 24.527-9.567 9.385 0 17.581 3.921 24.527 9.567 8.246 6.684 14.728 15.807 19.295 23.67 5.948 10.232 16.896 16.512 28.73 16.512 21.62.001 37.44-20.238 32.379-40.958z" fill="#d97c40"/><path d="m273.027 223.256c-3.226 10.484-12.994 18.105-24.527 18.105s-21.301-7.621-24.527-18.105c6.946-5.645 15.141-9.567 24.527-9.567 9.385.001 17.581 3.922 24.527 9.567z" fill="#423e4f"/><path d="m274.839 345.886c-24.249 0-43.907 19.658-43.907 43.907s19.658 33.023 43.907 33.023 43.907-8.774 43.907-33.023-19.658-43.907-43.907-43.907z" fill="#ffefe0"/><path d="m361.129 336.944h-40.348c-13.559 0-24.551 10.992-24.551 24.551 0 13.559 10.992 24.551 24.551 24.551h40.348c13.559 0 24.551-10.992 24.551-24.551.001-13.559-10.991-24.551-24.551-24.551z" fill="#f1c6ad"/><path d="m183.433 446.199c-17.699 0-32.047 14.348-32.047 32.047 0 10.358 8.397 18.755 18.755 18.755h26.584c10.358 0 18.755-8.397 18.755-18.755 0-17.7-14.348-32.047-32.047-32.047z" fill="#f1c6ad"/><path d="m313.567 446.199c17.699 0 32.047 14.348 32.047 32.047 0 10.358-8.397 18.755-18.755 18.755h-26.584c-10.358 0-18.755-8.397-18.755-18.755 0-17.7 14.348-32.047 32.047-32.047z" fill="#f1c6ad"/><path d="m137.054 338.163h-21.993c-16.924 0-30.644 13.72-30.644 30.644v29.786c0 16.924 13.72 30.644 30.644 30.644h21.993c16.924 0 30.644-13.72 30.644-30.644v-29.786c0-16.924-13.72-30.644-30.644-30.644z" fill="#fbe29f"/><path d="m132.761 240.743c0-44.65 14.225-85.975 38.383-119.701-42.426 26.042-70.728 72.859-70.728 126.29 0 47.051 21.947 74.625 56.159 89.564-15.195-28.7-23.814-61.418-23.814-96.153z" fill="#e3986d"/><path d="m164.155 302.515h-15.71c-13.173 0-23.851 10.679-23.851 23.851 0 17.511 14.195 31.706 31.706 31.706 17.511 0 31.706-14.195 31.706-31.706 0-13.173-10.679-23.851-23.851-23.851z" fill="#f1c6ad"/><path d="m287.336 83.166c-12.385-12.208-31.748-15.478-47.828-6.756-12.769 6.926-20.328 19.712-21.157 33.216-.425 6.927 3.148 13.515 9.186 16.936 11.771 6.669 26.611 7.305 39.38.379 16.08-8.722 23.898-26.736 20.419-43.775z" fill="#80dfb5"/><g><path d="m254.646 108.403c-2.663 0-5.241-1.421-6.6-3.925-1.975-3.641-.624-8.194 3.017-10.169l54.159-29.377c3.643-1.975 8.194-.624 10.169 3.017s.624 8.194-3.017 10.169l-54.159 29.377c-1.136.615-2.361.908-3.569.908z" fill="#b0ebce"/></g><g fill="#423e4f"><path d="m185.546 237.565c4.142 0 7.5-3.358 7.5-7.5v-12.097c0-4.142-3.358-7.5-7.5-7.5s-7.5 3.358-7.5 7.5v12.097c0 4.143 3.358 7.5 7.5 7.5z"/><path d="m311.453 237.565c4.142 0 7.5-3.358 7.5-7.5v-12.097c0-4.142-3.358-7.5-7.5-7.5s-7.5 3.358-7.5 7.5v12.097c0 4.143 3.358 7.5 7.5 7.5z"/><path d="m235.403 283.782c4.97 0 9.535-1.77 13.097-4.712 3.562 2.942 8.127 4.712 13.098 4.712 11.357 0 20.597-9.24 20.597-20.597 0-4.142-3.358-7.5-7.5-7.5s-7.5 3.358-7.5 7.5c0 3.086-2.511 5.597-5.597 5.597s-5.598-2.511-5.598-5.597c0-4.142-3.358-7.5-7.5-7.5s-7.5 3.358-7.5 7.5c0 3.086-2.511 5.597-5.597 5.597s-5.597-2.511-5.597-5.597c0-4.142-3.358-7.5-7.5-7.5s-7.5 3.358-7.5 7.5c-.001 11.357 9.239 20.597 20.597 20.597z"/></g><path d="m262.64 364.257c0-5.994.862-11.782 2.44-17.269-19.549 4.44-34.146 21.912-34.146 42.804 0 24.249 19.658 33.023 43.907 33.023 7.906 0 15.317-.94 21.725-3.038-20.14-10.351-33.926-31.319-33.926-55.52z" fill="#fbe5c8"/><path d="m107.391 368.58c0-11.089 2.99-21.473 8.186-30.417h-.516c-16.924 0-30.644 13.72-30.644 30.645v29.786c0 16.924 13.72 30.645 30.644 30.645h15.986c-15.68-13.31-23.656-37.828-23.656-60.659z" fill="#fccb88"/></g></svg>