<?xml version="1.0" encoding="iso-8859-1"?>
<!-- Generator: Adobe Illustrator 19.0.0, SVG Export Plug-In . SVG Version: 6.00 Build 0)  -->
<svg version="1.1" id="Capa_1" xmlns="http://www.w3.org/2000/svg" xmlns:xlink="http://www.w3.org/1999/xlink" x="0px" y="0px"
	 viewBox="0 0 512 512" style="enable-background:new 0 0 512 512;" xml:space="preserve">
<path style="fill:#FABD91;" d="M132.554,423.829h70.537v52.903h220.427v-14.169c0.882-70.255,14.636-139.76,40.559-205.068
	c37.49-97.755-11.356-207.396-109.112-244.886c-91.715-35.18-195.114,5.537-238.22,93.805
	c-12.459,25.261-72.362,193.976-72.362,193.976h52.903v88.171C97.285,408.037,113.077,423.829,132.554,423.829z"/>
<path style="fill:#FEC9A3;" d="M145.779,335.658H35.566c-19.477,0-35.268,15.791-35.268,35.268V512h110.214
	c12.176,0,22.043-9.866,22.043-22.043s-9.866-22.043-22.043-22.043c12.176,0,22.043-9.866,22.043-22.043
	s-9.866-22.043-22.043-22.043c12.176,0,22.043-9.866,22.043-22.043s-9.866-22.043-22.043-22.043h35.268
	c12.176,0,22.043-9.866,22.043-22.043C167.822,345.524,157.947,335.658,145.779,335.658z"/>
<g>
	<path style="fill:#EBAB7C;" d="M194.273,238.67c-19.477,0-35.268-15.791-35.268-35.268s15.791-35.268,35.268-35.268
		s35.268,15.791,35.268,35.268S213.75,238.67,194.273,238.67z M194.273,185.767c-9.743,0-17.634,7.891-17.634,17.634
		c0,9.743,7.891,17.634,17.634,17.634s17.634-7.891,17.634-17.634C211.907,193.658,204.007,185.767,194.273,185.767z"/>
	<path style="fill:#EBAB7C;" d="M247.026,432.646H203.09v-17.634h43.936c11.797-0.044,22.157-7.856,25.437-19.186l27.959-97.87
		l16.946,4.849l-27.95,97.87C283.952,419.552,266.688,432.575,247.026,432.646z"/>
</g>
<g>
	<path style="fill:#F7B483;" d="M70.834,370.926h30.86c4.867,0,8.817,3.95,8.817,8.817l0,0c0,4.867-3.95,8.817-8.817,8.817h-30.86
		c-4.867,0-8.817-3.95-8.817-8.817l0,0C62.017,374.867,65.958,370.926,70.834,370.926z"/>
	<path style="fill:#F7B483;" d="M70.834,415.012h30.86c4.867,0,8.817,3.95,8.817,8.817l0,0c0,4.867-3.95,8.817-8.817,8.817h-30.86
		c-4.867,0-8.817-3.95-8.817-8.817l0,0C62.017,418.953,65.958,415.012,70.834,415.012z"/>
	<path style="fill:#F7B483;" d="M70.834,459.097h30.86c4.867,0,8.817,3.95,8.817,8.817l0,0c0,4.867-3.95,8.817-8.817,8.817h-30.86
		c-4.867,0-8.817-3.95-8.817-8.817l0,0C62.017,463.038,65.958,459.097,70.834,459.097z"/>
	<path style="fill:#F7B483;" d="M475.292,169.235c-3.192-29.026-13.155-56.897-29.096-81.364
		c-34.916,217.985-122.073,330.72-205.5,388.86h182.822v-14.169c0.882-70.255,14.636-139.76,40.559-205.068
		C474.754,229.376,478.598,199.125,475.292,169.235z"/>
</g>
<path style="fill:#F0E4D6;" d="M493.093,124.047c18.983-14.601,24.159-41.035,12.097-61.72c-12.238-20.72-37.764-29.423-60.115-20.5
	c-4.047-26.522-28.823-44.738-55.336-40.691c-21.002,3.201-37.481,19.689-40.682,40.682c-22.351-8.923-47.877-0.22-60.115,20.5
	c-12.062,20.685-6.886,47.119,12.097,61.72c-18.983,14.601-24.159,41.035-12.097,61.72c12.238,20.72,37.764,29.423,60.115,20.5
	c4.047,26.513,28.814,44.729,55.336,40.682c21.002-3.201,37.481-19.689,40.682-40.682c22.351,8.923,47.877,0.22,60.115-20.5
	C517.252,165.073,512.068,138.649,493.093,124.047z"/>
<g>
	<rect x="388.214" y="115.239" style="fill:#E0D2C1;" width="17.634" height="17.634"/>
	<rect x="352.946" y="115.239" style="fill:#E0D2C1;" width="17.634" height="17.634"/>
	<rect x="423.482" y="115.239" style="fill:#E0D2C1;" width="17.634" height="17.634"/>
</g>
<path style="fill:#E8DCCF;" d="M493.093,124.047c20.826-15.968,24.767-45.796,8.799-66.622
	c-5.299-6.913-12.388-12.229-20.509-15.377c-22.272,71.604-67.195,134.046-127.998,177.929
	c11.559,24.159,40.515,34.378,64.673,22.819c14.504-6.939,24.626-20.614,27.024-36.52c22.351,8.914,47.868,0.212,60.106-20.509
	C517.252,165.073,512.068,138.649,493.093,124.047z"/>
<g>
</g>
<g>
</g>
<g>
</g>
<g>
</g>
<g>
</g>
<g>
</g>
<g>
</g>
<g>
</g>
<g>
</g>
<g>
</g>
<g>
</g>
<g>
</g>
<g>
</g>
<g>
</g>
<g>
</g>
</svg>
